<!DOCTYPE svg PUBLIC "-//W3C//DTD SVG 20010904//EN" "http://www.w3.org/TR/2001/REC-SVG-20010904/DTD/svg10.dtd">
<svg version="1.0" xmlns="http://www.w3.org/2000/svg" width="765px" height="250px" viewBox="0 0 7650 2500" preserveAspectRatio="xMidYMid meet">
<g id="layer1" fill="#d3eefa" stroke="none">
 <path d="M2395 2349 c-4 -6 -3 -15 3 -21 6 -6 8 -16 6 -23 -3 -7 -1 -16 5 -19 6 -4 8 -13 5 -20 -3 -8 -1 -17 5 -20 6 -4 8 -13 5 -20 -3 -8 -1 -17 5 -20 6 -4 8 -13 5 -20 -3 -8 -1 -17 5 -20 6 -4 8 -13 5 -20 -3 -8 0 -17 5 -21 6 -3 9 -10 6 -15 -3 -5 0 -21 7 -37 6 -15 10 -33 9 -40 -2 -16 16 -26 24 -13 4 6 2 17 -4 24 -6 7 -8 15 -6 18 3 3 0 18 -6 34 -7 16 -11 34 -10 41 1 6 -3 14 -8 18 -6 3 -8 12 -5 19 3 8 1 17 -5 20 -6 4 -8 13 -5 20 3 8 1 17 -5 20 -6 4 -8 13 -5 20 3 8 1 17 -5 20 -6 4 -8 13 -5 20 3 8 1 17 -5 20 -6 4 -8 13 -5 20 7 17 -12 30 -21 15z"/>
 <path d="M2330 2305 c-19 -19 -31 -38 -27 -41 4 -4 2 -13 -4 -20 -14 -17 -4 -48 12 -39 6 4 9 16 6 26 -3 11 8 33 29 58 43 49 29 63 -16 16z"/>
 <path d="M2295 2100 c-4 -6 -3 -16 3 -22 6 -6 12 -6 17 2 4 6 3 16 -3 22 -6 6 -12 6 -17 -2z"/>
 <path d="M2305 2050 c-4 -6 -3 -16 3 -22 6 -6 12 -6 17 2 4 6 3 16 -3 22 -6 6 -12 6 -17 -2z"/>
 <path d="M2315 2000 c-4 -6 -3 -16 3 -22 6 -6 12 -6 17 2 4 6 3 16 -3 22 -6 6 -12 6 -17 -2z"/>
 <path d="M2495 1967 c-4 -8 -1 -26 6 -39 7 -13 13 -30 14 -38 2 -24 57 -184 68 -197 5 -7 6 -13 2 -13 -4 0 0 -11 9 -25 9 -14 14 -25 11 -25 -3 0 2 -14 11 -31 11 -22 19 -28 26 -21 8 8 5 19 -8 39 -10 15 -17 32 -16 37 2 5 -4 16 -13 26 -8 9 -13 19 -10 22 4 4 -41 148 -61 198 -4 8 -8 26 -10 39 -4 32 -21 49 -29 28z"/>
 <path d="M3905 1961 c-7 -12 12 -24 25 -16 11 7 4 25 -10 25 -5 0 -11 -4 -15 -9z"/>
 <path d="M2335 1930 c-4 -6 -3 -16 3 -22 6 -6 12 -6 17 2 4 6 3 16 -3 22 -6 6 -12 6 -17 -2z"/>
 <path d="M1011 1914 c-12 -9 -19 -20 -15 -25 4 -6 11 -6 19 1 7 6 25 12 39 13 15 1 27 6 29 12 3 16 -49 15 -72 -1z"/>
 <path d="M3750 1889 c-31 -44 -37 -64 -20 -74 5 -3 16 11 25 32 9 20 23 45 31 54 10 11 12 19 5 23 -6 4 -24 -12 -41 -35z"/>
 <path d="M4016 1922 c-3 -6 1 -15 8 -21 8 -7 17 -8 20 -3 3 6 -1 15 -8 21 -8 7 -17 8 -20 3z"/>
 <path d="M1115 1911 c-7 -12 12 -24 25 -16 11 7 4 25 -10 25 -5 0 -11 -4 -15 -9z"/>
 <path d="M1175 1901 c-7 -12 12 -24 25 -16 11 7 4 25 -10 25 -5 0 -11 -4 -15 -9z"/>
 <path d="M1265 1890 c-8 -12 20 -24 35 -15 6 3 8 11 5 16 -8 12 -32 12 -40 -1z"/>
 <path d="M4056 1892 c-3 -6 1 -15 8 -21 8 -7 17 -8 20 -3 3 6 -1 15 -8 21 -8 7 -17 8 -20 3z"/>
 <path d="M1736 1881 c-3 -4 26 -29 64 -54 38 -26 72 -42 75 -37 3 5 -20 26 -52 48 -79 53 -81 54 -87 43z"/>
 <path d="M3896 1882 c-3 -6 1 -15 8 -21 8 -7 17 -8 20 -3 3 6 -1 15 -8 21 -8 7 -17 8 -20 3z"/>
 <path d="M1644 1867 c-7 -20 -2 -47 11 -50 14 -3 19 43 6 56 -7 7 -12 6 -17 -6z"/>
 <path d="M2132 1841 c-39 -41 -64 -88 -52 -96 5 -3 23 16 40 43 17 28 40 52 51 55 12 3 18 10 14 16 -10 18 -25 13 -53 -18z"/>
 <path d="M2356 1862 c-6 -10 31 -129 47 -150 6 -7 12 -25 13 -39 2 -14 9 -33 17 -42 8 -9 13 -21 10 -27 -2 -6 3 -17 11 -23 8 -7 13 -18 10 -25 -3 -7 2 -18 10 -25 8 -7 13 -18 10 -26 -7 -16 12 -29 21 -15 4 6 1 17 -5 25 -7 8 -9 15 -5 15 4 0 0 11 -9 25 -9 14 -14 25 -11 25 3 0 0 10 -7 23 -6 12 -13 27 -14 32 -1 6 -8 24 -15 40 -7 17 -13 32 -14 35 -7 31 -49 147 -55 153 -4 5 -10 4 -14 -1z"/>
 <path d="M3847 1863 c-4 -7 -2 -58 2 -58 2 0 4 -8 6 -19 5 -24 45 -67 57 -60 5 3 -4 22 -20 42 -18 24 -27 47 -26 64 3 27 -10 46 -19 31z"/>
 <path d="M5186 1863 c-3 -4 -13 -8 -21 -9 -18 -3 -64 -35 -89 -63 -14 -16 -16 -24 -7 -34 6 -8 8 -17 5 -20 -4 -3 -3 -14 1 -24 5 -10 8 -21 7 -25 -1 -4 3 -20 10 -35 6 -15 10 -33 9 -40 -2 -16 16 -26 24 -13 4 6 2 17 -4 24 -6 7 -8 15 -6 18 3 3 0 18 -6 34 -7 16 -11 36 -10 46 1 9 -3 19 -9 23 -17 10 6 41 55 75 l45 31 10 -27 c7 -18 14 -24 21 -17 6 6 6 19 0 36 -10 27 -21 33 -35 20z"/>
 <path d="M5895 1861 c-7 -12 12 -24 25 -16 11 7 4 25 -10 25 -5 0 -11 -4 -15 -9z"/>
 <path d="M3385 1850 c-3 -5 0 -12 7 -15 77 -28 98 -33 103 -24 4 5 -9 16 -27 23 -57 23 -76 27 -83 16z"/>
 <path d="M923 1824 c-22 -34 -25 -52 -11 -77 6 -13 13 -16 20 -9 7 7 7 16 0 28 -8 14 -5 25 9 45 11 16 15 30 10 34 -6 3 -18 -6 -28 -21z"/>
 <path d="M2215 1841 c-6 -11 29 -33 39 -24 7 7 -12 33 -25 33 -4 0 -10 -4 -14 -9z"/>
 <path d="M3279 1832 c-29 -24 -11 -36 20 -13 14 11 19 21 13 25 -5 3 -20 -2 -33 -12z"/>
 <path d="M5809 1833 c-42 -28 -79 -66 -73 -75 3 -5 20 4 38 19 17 15 42 35 56 44 13 9 19 18 13 22 -5 3 -21 -1 -34 -10z"/>
 <path d="M4097 1834 c-3 -4 -2 -16 4 -26 8 -15 14 -17 22 -9 8 8 7 15 -4 26 -8 9 -18 13 -22 9z"/>
 <path d="M4919 1838 c-1 -5 -9 -50 -13 -73 -2 -11 -6 -27 -9 -35 -9 -24 -3 -90 8 -88 6 2 11 23 11 48 1 25 7 58 13 74 17 42 18 68 4 73 -7 3 -13 3 -14 1z"/>
 <path d="M4419 1812 c-29 -24 -11 -36 20 -13 14 11 19 21 13 25 -5 3 -20 -2 -33 -12z"/>
 <path d="M1715 1811 c-3 -6 21 -28 54 -50 33 -23 62 -37 66 -32 3 6 -21 28 -54 50 -33 23 -62 37 -66 32z"/>
 <path d="M2236 1744 c-24 -50 -33 -81 -27 -87 6 -6 23 17 48 66 26 55 34 80 27 87 -8 8 -22 -11 -48 -66z"/>
 <path d="M4804 1795 c-41 -24 -81 -71 -70 -82 3 -4 1 -12 -5 -19 -6 -7 -8 -18 -4 -24 8 -13 26 -3 23 13 -5 25 32 73 71 95 23 13 39 28 36 33 -8 11 -3 13 -51 -16z"/>
 <path d="M6036 1811 c-4 -5 7 -19 23 -30 16 -12 32 -17 35 -12 4 5 -7 19 -23 30 -16 12 -32 17 -35 12z"/>
 <path d="M3516 1802 c-3 -6 1 -15 8 -21 8 -7 17 -8 20 -3 3 6 -1 15 -8 21 -8 7 -17 8 -20 3z"/>
 <path d="M1620 1761 c-25 -50 -9 -65 20 -19 23 37 24 44 10 53 -5 3 -18 -12 -30 -34z"/>
 <path d="M2651 1786 c-8 -10 -6 -17 8 -30 11 -10 21 -13 25 -7 4 5 2 12 -4 16 -6 4 -8 10 -5 15 9 15 -12 21 -24 6z"/>
 <path d="M3986 1792 c-3 -6 1 -15 8 -21 8 -7 17 -8 20 -3 3 6 -1 15 -8 21 -8 7 -17 8 -20 3z"/>
 <path d="M1145 1781 c-7 -12 12 -24 25 -16 11 7 4 25 -10 25 -5 0 -11 -4 -15 -9z"/>
 <path d="M3735 1781 c-4 -8 -1 -19 8 -28 19 -20 30 -1 13 22 -10 14 -15 15 -21 6z"/>
 <path d="M4376 1781 c-4 -5 -2 -12 3 -15 5 -4 12 -2 15 3 4 5 2 12 -3 15 -5 4 -12 2 -15 -3z"/>
 <path d="M4586 1782 c-7 -12 53 -84 65 -76 6 4 6 11 -2 20 -6 7 -15 11 -20 8 -5 -3 -6 1 -4 9 7 15 -30 53 -39 39z"/>
 <path d="M5935 1781 c-7 -12 12 -24 25 -16 11 7 4 25 -10 25 -5 0 -11 -4 -15 -9z"/>
 <path d="M1104 1766 c-4 -9 -1 -22 5 -30 6 -7 8 -16 4 -19 -3 -4 -1 -13 5 -20 7 -8 10 -16 7 -19 -5 -5 24 -99 47 -155 6 -16 12 -32 14 -38 8 -36 26 -65 34 -60 13 8 4 43 -16 66 -8 9 -12 18 -9 21 4 4 -32 124 -52 168 -3 8 -5 20 -4 27 1 6 -3 14 -8 17 -5 3 -7 15 -4 25 6 23 -15 38 -23 17z"/>
 <path d="M3415 1770 c-3 -5 8 -16 24 -25 36 -18 51 -3 19 19 -26 18 -35 20 -43 6z"/>
 <path d="M2876 1762 c-3 -6 1 -15 8 -21 8 -7 17 -8 20 -3 3 6 -1 15 -8 21 -8 7 -17 8 -20 3z"/>
 <path d="M3576 1762 c-3 -6 1 -15 8 -21 8 -7 17 -8 20 -3 3 6 -1 15 -8 21 -8 7 -17 8 -20 3z"/>
 <path d="M4125 1760 c-4 -6 -3 -16 3 -22 6 -6 12 -6 17 2 4 6 3 16 -3 22 -6 6 -12 6 -17 -2z"/>
 <path d="M6106 1762 c-3 -5 3 -17 13 -26 11 -10 22 -13 25 -8 3 5 -3 17 -13 26 -11 10 -22 13 -25 8z"/>
 <path d="M1295 1751 c-7 -12 12 -24 25 -16 11 7 4 25 -10 25 -5 0 -11 -4 -15 -9z"/>
 <path d="M1926 1752 c-3 -6 1 -15 8 -21 8 -7 17 -8 20 -3 3 6 -1 15 -8 21 -8 7 -17 8 -20 3z"/>
 <path d="M3202 1747 c-20 -25 -35 -88 -23 -100 7 -7 12 -5 16 9 4 10 13 36 20 56 13 38 6 59 -13 35z"/>
 <path d="M5225 1750 c-3 -5 -3 -15 1 -22 4 -7 9 -21 10 -33 4 -36 24 -76 34 -70 11 7 7 26 -13 75 -6 14 -9 30 -8 37 2 16 -16 26 -24 13z"/>
 <path d="M6026 1751 c-4 -5 7 -19 23 -30 16 -12 32 -17 35 -12 4 5 -7 19 -23 30 -16 12 -32 17 -35 12z"/>
 <path d="M1355 1741 c-7 -12 12 -24 25 -16 11 7 4 25 -10 25 -5 0 -11 -4 -15 -9z"/>
 <path d="M2696 1742 c-3 -5 3 -17 13 -26 11 -10 22 -13 25 -8 3 5 -3 17 -13 26 -11 10 -22 13 -25 8z"/>
 <path d="M4350 1734 c-9 -10 -10 -18 -3 -25 8 -8 14 -5 22 9 13 25 -2 38 -19 16z"/>
 <path d="M4517 1743 c-8 -15 -2 -63 8 -63 12 0 16 58 5 65 -5 3 -10 2 -13 -2z"/>
 <path d="M1435 1731 c-7 -12 12 -24 25 -16 11 7 4 25 -10 25 -5 0 -11 -4 -15 -9z"/>
 <path d="M2916 1732 c-3 -6 1 -15 8 -21 8 -7 17 -8 20 -3 3 6 -1 15 -8 21 -8 7 -17 8 -20 3z"/>
 <path d="M3324 1726 c-4 -10 -2 -22 4 -28 8 -8 13 -7 18 6 4 10 2 22 -4 28 -8 8 -13 7 -18 -6z"/>
 <path d="M3486 1732 c-3 -6 1 -15 8 -21 8 -7 17 -8 20 -3 3 6 -1 15 -8 21 -8 7 -17 8 -20 3z"/>
 <path d="M1846 1722 c-3 -6 1 -15 8 -21 8 -7 17 -8 20 -3 3 6 -1 15 -8 21 -8 7 -17 8 -20 3z"/>
 <path d="M4027 1723 c-9 -14 8 -69 19 -65 5 2 8 15 7 29 -2 30 -18 50 -26 36z"/>
 <path d="M5855 1720 c-4 -6 -3 -16 3 -22 6 -6 12 -6 17 2 4 6 3 16 -3 22 -6 6 -12 6 -17 -2z"/>
 <path d="M936 1712 c-9 -15 12 -54 25 -47 12 8 11 18 -4 40 -10 12 -16 14 -21 7z"/>
 <path d="M1976 1712 c-3 -6 1 -15 8 -21 8 -7 17 -8 20 -3 3 6 -1 15 -8 21 -8 7 -17 8 -20 3z"/>
 <path d="M4135 1711 c-3 -6 -5 -35 -4 -66 2 -44 6 -58 21 -66 11 -6 22 -8 25 -5 4 3 12 1 19 -5 7 -6 18 -8 24 -4 14 8 2 28 -14 22 -6 -3 -20 1 -31 9 -15 11 -18 24 -16 63 2 46 -10 73 -24 52z"/>
 <path d="M6156 1712 c-3 -5 5 -19 18 -31 13 -13 26 -18 30 -13 3 5 -5 19 -18 31 -13 13 -26 18 -30 13z"/>
 <path d="M2746 1692 c-3 -5 5 -19 18 -31 13 -13 26 -18 30 -13 3 5 -5 19 -18 31 -13 13 -26 18 -30 13z"/>
 <path d="M3776 1692 c-3 -6 1 -15 8 -21 8 -7 17 -8 20 -3 3 6 -1 15 -8 21 -8 7 -17 8 -20 3z"/>
 <path d="M4656 1692 c-3 -6 1 -15 8 -21 8 -7 17 -8 20 -3 3 6 -1 15 -8 21 -8 7 -17 8 -20 3z"/>
 <path d="M1896 1682 c-3 -5 3 -17 13 -26 11 -10 22 -13 25 -8 3 5 -3 17 -13 26 -11 10 -22 13 -25 8z"/>
 <path d="M2035 1680 c-4 -6 -3 -16 3 -22 6 -6 12 -6 17 2 4 6 3 16 -3 22 -6 6 -12 6 -17 -2z"/>
 <path d="M3657 1684 c-3 -3 6 -24 20 -45 17 -27 30 -36 36 -30 7 7 1 22 -17 46 -29 38 -30 38 -39 29z"/>
 <path d="M3956 1681 c-4 -5 7 -19 23 -30 16 -12 32 -17 35 -12 4 5 -7 19 -23 30 -16 12 -32 17 -35 12z"/>
 <path d="M4586 1682 c-3 -5 3 -17 13 -26 11 -10 22 -13 25 -8 3 5 -3 17 -13 26 -11 10 -22 13 -25 8z"/>
 <path d="M5695 1680 c-4 -6 -3 -16 3 -22 6 -6 12 -6 17 2 4 6 3 16 -3 22 -6 6 -12 6 -17 -2z"/>
 <path d="M6117 1683 c-4 -6 14 -29 39 -53 l44 -44 21 21 c13 13 18 26 14 34 -6 9 -11 7 -22 -6 -12 -18 -15 -17 -52 19 -21 21 -41 34 -44 29z"/>
 <path d="M3548 1674 c-4 -5 6 -25 21 -43 16 -19 31 -30 34 -24 3 5 -6 25 -22 43 -15 19 -30 29 -33 24z"/>
 <path d="M3324 1656 c-4 -9 -1 -22 5 -30 6 -7 8 -16 4 -19 -3 -4 -1 -13 5 -20 7 -8 9 -17 5 -20 -3 -4 0 -13 7 -22 7 -8 10 -15 6 -15 -3 0 5 -23 20 -51 17 -34 29 -48 36 -41 10 10 -22 84 -41 97 -6 3 -8 12 -5 19 3 8 1 17 -5 20 -6 4 -8 13 -5 20 3 8 1 17 -4 20 -6 3 -8 15 -5 25 6 23 -15 38 -23 17z"/>
 <path d="M4344 1656 c-4 -10 -2 -22 4 -28 8 -8 13 -7 18 6 4 10 2 22 -4 28 -8 8 -13 7 -18 -6z"/>
 <path d="M2998 1654 c-8 -13 61 -116 73 -109 5 4 2 18 -8 36 -29 48 -59 83 -65 73z"/>
 <path d="M4525 1649 c-4 -6 -3 -15 3 -21 6 -6 8 -16 5 -23 -2 -8 1 -23 7 -35 18 -33 34 -10 19 26 -7 16 -11 34 -10 41 2 16 -16 26 -24 12z"/>
 <path d="M4686 1651 c-7 -11 48 -63 57 -54 12 11 8 19 -22 41 -17 12 -32 18 -35 13z"/>
 <path d="M965 1640 c-4 -6 0 -19 9 -29 9 -10 13 -21 9 -24 -3 -4 1 -15 10 -25 10 -10 14 -22 10 -25 -3 -4 1 -15 10 -25 10 -10 14 -22 11 -25 -4 -4 -1 -14 6 -22 8 -9 15 -28 16 -42 2 -14 10 -33 18 -42 9 -10 13 -21 10 -24 -4 -4 -1 -14 7 -24 9 -10 9 -14 2 -10 -16 10 -89 -56 -79 -71 4 -6 25 8 55 36 43 41 48 49 38 67 -6 11 -12 25 -13 30 -1 6 -7 24 -14 40 -6 17 -11 31 -10 33 1 2 -6 14 -14 28 -9 13 -14 24 -10 24 3 0 -1 11 -10 25 -9 14 -14 25 -11 25 3 0 0 10 -7 23 -6 12 -13 28 -14 36 -4 22 -21 34 -29 21z"/>
 <path d="M4626 1632 c-3 -6 1 -15 8 -21 8 -7 17 -8 20 -3 3 6 -1 15 -8 21 -8 7 -17 8 -20 3z"/>
 <path d="M2807 1624 c-9 -10 53 -95 64 -89 5 4 2 19 -8 36 -22 37 -47 61 -56 53z"/>
 <path d="M3846 1622 c-3 -6 1 -15 8 -21 8 -7 17 -8 20 -3 3 6 -1 15 -8 21 -8 7 -17 8 -20 3z"/>
 <path d="M2171 1601 c-7 -12 -9 -21 -5 -21 3 0 1 -7 -6 -15 -14 -17 -6 -50 10 -40 6 4 10 15 8 24 -2 10 3 26 11 35 10 12 11 20 4 27 -8 8 -14 5 -22 -10z"/>
 <path d="M5896 1611 c-4 -5 -2 -12 3 -15 5 -4 12 -2 15 3 4 5 2 12 -3 15 -5 4 -12 2 -15 -3z"/>
 <path d="M4355 1600 c-3 -5 -3 -16 1 -22 5 -7 9 -19 9 -28 2 -26 46 -149 55 -155 19 -12 17 15 -6 81 -13 38 -27 76 -31 84 -3 8 -5 20 -4 27 2 16 -16 26 -24 13z"/>
 <path d="M4905 1600 c-4 -6 -3 -16 3 -22 6 -6 12 -6 17 2 4 6 3 16 -3 22 -6 6 -12 6 -17 -2z"/>
 <path d="M1994 1586 c-4 -10 -2 -22 4 -28 8 -8 13 -7 18 6 4 10 2 22 -4 28 -8 8 -13 7 -18 -6z"/>
 <path d="M4656 1592 c-3 -6 1 -15 8 -21 8 -7 17 -8 20 -3 3 6 -1 15 -8 21 -8 7 -17 8 -20 3z"/>
 <path d="M5694 1576 c-4 -10 -2 -22 4 -28 8 -8 13 -7 18 6 4 10 2 22 -4 28 -8 8 -13 7 -18 -6z"/>
 <path d="M3936 1572 c-3 -6 -2 -13 4 -17 5 -3 10 -3 10 1 0 3 7 1 15 -6 8 -6 19 -9 25 -5 14 9 1 28 -15 21 -7 -2 -17 0 -23 6 -6 6 -12 6 -16 0z"/>
 <path d="M4235 1570 c-4 -6 -3 -16 3 -22 6 -6 12 -6 17 2 4 6 3 16 -3 22 -6 6 -12 6 -17 -2z"/>
 <path d="M3174 1555 c-4 -9 -2 -21 4 -27 6 -6 8 -16 6 -23 -7 -16 12 -29 21 -15 3 5 3 16 -2 23 -4 6 -6 19 -5 29 4 22 -17 33 -24 13z"/>
 <path d="M2646 1551 c-8 -12 63 -103 74 -96 5 3 -7 28 -26 55 -38 53 -40 55 -48 41z"/>
 <path d="M4687 1554 c-3 -3 18 -41 46 -83 29 -43 60 -92 69 -110 10 -18 23 -29 28 -26 13 8 -32 92 -92 172 -41 56 -41 56 -51 47z"/>
 <path d="M5126 1552 c-7 -12 62 -222 80 -243 8 -9 12 -18 8 -21 -3 -3 2 -23 11 -44 10 -25 19 -34 25 -28 7 7 5 24 -7 50 -9 21 -18 44 -19 49 -8 34 -77 231 -84 238 -4 5 -10 4 -14 -1z"/>
 <path d="M5885 1540 c-15 -16 -15 -22 -5 -35 7 -8 10 -15 6 -15 -3 0 5 -23 20 -51 17 -35 29 -48 36 -41 9 9 -9 58 -35 90 -16 20 -17 54 -1 41 7 -6 14 -6 18 -1 3 6 0 15 -8 21 -10 8 -17 6 -31 -9z"/>
 <path d="M3626 1542 c-3 -6 -1 -23 6 -39 6 -15 10 -33 9 -40 -2 -16 16 -26 24 -13 3 5 3 15 -1 22 -4 7 -8 22 -9 35 -1 27 -20 50 -29 35z"/>
 <path d="M1975 1530 c-4 -6 -4 -14 -1 -17 3 -4 0 -13 -8 -22 -21 -25 -38 -83 -26 -95 9 -9 37 42 43 81 1 10 6 24 11 31 5 8 4 18 -2 24 -6 6 -12 6 -17 -2z"/>
 <path d="M3746 1532 c-3 -6 -1 -23 4 -39 6 -15 13 -34 16 -42 3 -9 8 -11 14 -5 7 7 6 22 -1 45 -14 41 -25 54 -33 41z"/>
 <path d="M2875 1520 c-6 -10 38 -105 54 -115 6 -3 8 -12 5 -19 -3 -7 2 -18 10 -25 8 -7 13 -18 10 -26 -7 -16 12 -29 21 -15 4 6 1 17 -5 25 -7 8 -9 15 -5 15 4 0 0 11 -9 25 -9 14 -14 25 -11 25 3 0 -8 27 -25 60 -32 62 -35 66 -45 50z"/>
 <path d="M3076 1522 c-9 -15 12 -54 25 -47 12 8 11 18 -4 40 -10 12 -16 14 -21 7z"/>
 <path d="M4927 1523 c-8 -15 33 -97 44 -86 6 6 4 22 -6 46 -15 37 -30 53 -38 40z"/>
 <path d="M5956 1512 c-3 -6 1 -15 8 -21 8 -7 17 -8 20 -3 3 6 -1 15 -8 21 -8 7 -17 8 -20 3z"/>
 <path d="M5336 1502 c-3 -5 5 -19 18 -31 13 -13 26 -18 30 -13 3 5 -5 19 -18 31 -13 13 -26 18 -30 13z"/>
 <path d="M6096 1502 c-3 -6 1 -15 8 -21 8 -7 17 -8 20 -3 3 6 -1 15 -8 21 -8 7 -17 8 -20 3z"/>
 <path d="M4576 1492 c-9 -15 12 -54 25 -47 12 8 11 18 -4 40 -10 12 -16 14 -21 7z"/>
 <path d="M5716 1492 c-11 -19 19 -76 35 -67 4 3 3 18 -3 33 -16 36 -25 46 -32 34z"/>
 <path d="M4024 1477 c-3 -9 -3 -20 0 -26 4 -5 1 -13 -5 -16 -5 -4 -8 -13 -5 -21 3 -7 1 -16 -5 -20 -6 -3 -8 -12 -5 -19 2 -7 0 -17 -6 -23 -12 -12 -1 -35 13 -26 6 3 8 12 5 20 -3 7 -1 16 5 20 6 3 8 12 5 20 -3 7 -1 16 5 19 5 4 9 12 8 18 -1 7 1 20 6 30 4 11 3 23 -3 29 -8 8 -13 7 -18 -5z"/>
 <path d="M6007 1473 c-8 -13 67 -85 78 -76 4 5 5 3 2 -3 -3 -6 6 -35 22 -65 15 -30 26 -59 24 -66 -5 -15 14 -26 22 -13 3 5 3 15 -1 22 -4 7 -9 23 -10 35 -2 13 -12 38 -23 56 -27 44 -107 121 -114 110z"/>
 <path d="M2236 1462 c-3 -5 5 -19 18 -31 13 -13 26 -18 30 -13 3 5 -5 19 -18 31 -13 13 -26 18 -30 13z"/>
 <path d="M2505 1460 c-4 -6 -3 -16 3 -22 6 -6 12 -6 17 2 4 6 3 16 -3 22 -6 6 -12 6 -17 -2z"/>
 <path d="M4134 1456 c-8 -21 3 -49 16 -41 5 3 10 15 10 25 0 25 -18 36 -26 16z"/>
 <path d="M2114 1449 c-7 -12 46 -60 58 -53 9 6 -31 64 -43 64 -4 0 -11 -5 -15 -11z"/>
 <path d="M2726 1442 c-3 -6 1 -15 8 -21 8 -7 17 -8 20 -3 3 6 -1 15 -8 21 -8 7 -17 8 -20 3z"/>
 <path d="M5667 1443 c-4 -3 -2 -14 4 -24 5 -10 7 -29 3 -43 -8 -33 14 -43 26 -12 13 36 -13 100 -33 79z"/>
 <path d="M5406 1432 c-3 -5 3 -17 13 -26 11 -10 22 -13 25 -8 3 5 -3 17 -13 26 -11 10 -22 13 -25 8z"/>
 <path d="M6167 1434 c-3 -6 4 -23 17 -39 13 -15 25 -24 29 -19 3 6 -4 23 -17 39 -13 15 -25 24 -29 19z"/>
 <path d="M3215 1420 c-10 -17 31 -84 46 -74 8 5 -26 84 -36 84 -2 0 -7 -4 -10 -10z"/>
 <path d="M3416 1422 c-3 -6 1 -15 8 -21 8 -7 17 -8 20 -3 3 6 -1 15 -8 21 -8 7 -17 8 -20 3z"/>
 <path d="M3655 1420 c-4 -6 -3 -16 3 -22 6 -6 12 -6 17 2 4 6 3 16 -3 22 -6 6 -12 6 -17 -2z"/>
 <path d="M3774 1416 c-4 -10 -2 -22 4 -28 8 -8 13 -7 18 6 4 10 2 22 -4 28 -8 8 -13 7 -18 -6z"/>
 <path d="M4605 1420 c-3 -5 8 -38 26 -72 37 -74 48 -90 60 -83 7 5 -66 165 -76 165 -2 0 -6 -4 -10 -10z"/>
 <path d="M2105 1410 c-4 -6 -4 -14 -1 -17 3 -3 1 -12 -5 -19 -6 -7 -8 -18 -4 -24 9 -14 28 -1 21 15 -2 7 1 18 7 24 8 8 8 14 0 22 -8 8 -13 8 -18 -1z"/>
 <path d="M2526 1411 c-8 -12 9 -57 24 -66 5 -3 8 -10 5 -15 -6 -10 14 -70 30 -90 7 -8 10 -20 8 -27 -5 -15 14 -26 22 -13 3 5 3 16 -2 23 -4 6 -8 19 -10 27 -1 9 -10 34 -19 55 -10 22 -19 45 -20 50 -4 21 -24 65 -28 65 -3 0 -7 -4 -10 -9z"/>
 <path d="M3115 1409 c-4 -6 -3 -15 3 -21 6 -6 8 -16 6 -23 -3 -7 -1 -16 5 -19 14 -9 25 14 13 26 -6 6 -8 16 -6 23 7 17 -12 29 -21 14z"/>
 <path d="M5346 1412 c-6 -11 22 -99 34 -107 18 -11 19 14 2 58 -20 52 -27 62 -36 49z"/>
 <path d="M5520 1388 c-23 -37 -24 -44 -10 -53 5 -3 18 12 30 34 25 50 9 65 -20 19z"/>
 <path d="M1225 1400 c-4 -6 1 -22 9 -35 9 -14 14 -25 10 -25 -4 0 -1 -7 6 -15 7 -8 16 -12 22 -9 5 3 4 12 -3 21 -7 8 -13 23 -14 34 -2 26 -20 44 -30 29z"/>
 <path d="M2297 1393 c-7 -12 93 -144 104 -137 5 3 -5 25 -22 50 -16 24 -34 42 -40 39 -5 -3 -6 0 -4 8 6 15 -30 53 -38 40z"/>
 <path d="M2766 1392 c-3 -6 1 -15 8 -21 8 -7 17 -8 20 -3 3 6 -1 15 -8 21 -8 7 -17 8 -20 3z"/>
 <path d="M2177 1384 c-9 -10 53 -95 64 -89 5 4 -5 26 -21 51 -33 47 -33 47 -43 38z"/>
 <path d="M3446 1382 c-3 -5 3 -17 13 -26 11 -10 22 -13 25 -8 3 5 -3 17 -13 26 -11 10 -22 13 -25 8z"/>
 <path d="M4266 1382 c-6 -10 0 -68 9 -82 11 -18 26 1 19 23 -4 12 -7 30 -6 39 1 20 -14 33 -22 20z"/>
 <path d="M5466 1382 c-3 -6 1 -15 8 -21 8 -7 17 -8 20 -3 3 6 -1 15 -8 21 -8 7 -17 8 -20 3z"/>
 <path d="M4145 1370 c-4 -6 -2 -17 4 -24 6 -7 8 -15 6 -18 -3 -3 -1 -18 5 -33 7 -19 14 -25 21 -18 6 6 6 19 -2 39 -7 16 -11 34 -10 41 2 16 -16 26 -24 13z"/>
 <path d="M4435 1370 c-3 -5 4 -29 16 -52 27 -54 39 -69 50 -62 8 5 -45 124 -56 124 -2 0 -7 -4 -10 -10z"/>
 <path d="M5956 1372 c-3 -6 1 -15 8 -21 8 -7 17 -8 20 -3 3 6 -1 15 -8 21 -8 7 -17 8 -20 3z"/>
 <path d="M4316 1362 c-3 -6 1 -15 8 -21 8 -7 17 -8 20 -3 3 6 -1 15 -8 21 -8 7 -17 8 -20 3z"/>
 <path d="M1915 1350 c-4 -6 -4 -14 -1 -17 3 -3 1 -12 -6 -20 -6 -7 -8 -16 -5 -20 4 -3 2 -12 -4 -19 -6 -7 -8 -18 -4 -24 9 -14 28 -1 21 16 -3 7 -1 16 5 20 6 3 8 12 5 19 -2 7 1 18 7 24 8 8 8 14 0 22 -8 8 -13 8 -18 -1z"/>
 <path d="M6216 1352 c-9 -15 12 -54 25 -47 12 8 11 18 -4 40 -10 12 -16 14 -21 7z"/>
 <path d="M2717 1343 c-7 -12 32 -95 42 -89 16 10 4 70 -17 84 -11 7 -22 10 -25 5z"/>
 <path d="M2806 1342 c-3 -5 3 -17 13 -26 11 -10 22 -13 25 -8 3 5 -3 17 -13 26 -11 10 -22 13 -25 8z"/>
 <path d="M5785 1340 c-8 -13 34 -72 45 -65 5 3 0 21 -11 40 -23 38 -25 40 -34 25z"/>
 <path d="M1305 1321 c-7 -12 12 -24 25 -16 11 7 4 25 -10 25 -5 0 -11 -4 -15 -9z"/>
 <path d="M3267 1324 c-3 -6 4 -23 17 -39 13 -15 25 -24 29 -19 3 6 -4 23 -17 39 -13 15 -25 24 -29 19z"/>
 <path d="M1365 1311 c-7 -12 12 -24 25 -16 11 7 4 25 -10 25 -5 0 -11 -4 -15 -9z"/>
 <path d="M2084 1306 c-4 -10 -2 -22 4 -28 8 -8 13 -7 18 6 4 10 2 22 -4 28 -8 8 -13 7 -18 -6z"/>
 <path d="M4346 1312 c-3 -6 -1 -23 5 -39 15 -35 17 -53 7 -75 -10 -21 6 -33 20 -15 8 10 10 62 3 62 -1 0 -4 13 -6 29 -5 33 -20 53 -29 38z"/>
 <path d="M1435 1300 c-8 -13 20 -24 41 -16 8 3 12 10 9 16 -8 13 -42 13 -50 0z"/>
 <path d="M1545 1300 c-8 -12 20 -24 35 -15 6 3 8 11 5 16 -8 12 -32 12 -40 -1z"/>
 <path d="M1615 1300 c-4 -6 -3 -16 3 -22 6 -6 12 -6 17 2 4 6 3 16 -3 22 -6 6 -12 6 -17 -2z"/>
 <path d="M3134 1296 c-8 -21 3 -49 16 -41 5 3 10 15 10 25 0 25 -18 36 -26 16z"/>
 <path d="M3526 1301 c-5 -8 5 -19 46 -49 9 -8 19 -9 22 -4 3 6 -10 22 -28 36 -19 14 -37 22 -40 17z"/>
 <path d="M3775 1290 c-4 -6 -3 -16 3 -22 6 -6 12 -6 17 2 4 6 3 16 -3 22 -6 6 -12 6 -17 -2z"/>
 <path d="M4835 1290 c-10 -17 31 -84 46 -74 8 5 -26 84 -36 84 -2 0 -7 -4 -10 -10z"/>
 <path d="M2245 1281 c-4 -8 -1 -19 8 -28 19 -20 30 -1 13 22 -10 14 -15 15 -21 6z"/>
 <path d="M5395 1280 c-4 -6 -3 -16 3 -22 6 -6 12 -6 17 2 4 6 3 16 -3 22 -6 6 -12 6 -17 -2z"/>
 <path d="M2975 1270 c-3 -5 -3 -16 1 -22 5 -7 9 -20 9 -30 2 -18 -3 -17 -47 14 -15 10 -29 14 -32 9 -7 -10 2 -18 62 -55 48 -30 61 -20 41 30 -7 16 -11 34 -10 41 2 16 -16 26 -24 13z"/>
 <path d="M3654 1266 c-4 -10 -2 -22 4 -28 8 -8 13 -7 18 6 4 10 2 22 -4 28 -8 8 -13 7 -18 -6z"/>
 <path d="M2796 1262 c-3 -5 8 -21 23 -36 16 -15 31 -23 35 -18 3 5 -8 21 -23 36 -16 15 -31 23 -35 18z"/>
 <path d="M5836 1262 c-3 -5 3 -17 13 -26 11 -10 22 -13 25 -8 3 5 -3 17 -13 26 -11 10 -22 13 -25 8z"/>
 <path d="M6076 1262 c-3 -6 1 -15 8 -21 8 -7 17 -8 20 -3 3 6 -1 15 -8 21 -8 7 -17 8 -20 3z"/>
 <path d="M3316 1252 c-3 -5 3 -17 13 -26 11 -10 22 -13 25 -8 3 5 -3 17 -13 26 -11 10 -22 13 -25 8z"/>
 <path d="M4276 1251 c-4 -5 -2 -12 3 -15 5 -4 12 -2 15 3 4 5 2 12 -3 15 -5 4 -12 2 -15 -3z"/>
 <path d="M5056 1252 c-9 -15 12 -54 25 -47 12 8 11 18 -4 40 -10 12 -16 14 -21 7z"/>
 <path d="M5506 1252 c-7 -12 28 -44 39 -35 4 5 5 2 1 -4 -8 -15 42 -85 55 -77 10 6 -37 78 -69 107 -11 10 -23 14 -26 9z"/>
 <path d="M5674 1246 c-3 -8 -2 -21 2 -28 4 -7 8 -27 9 -45 1 -39 8 -48 24 -29 9 10 9 20 0 42 -7 16 -11 36 -10 46 3 22 -18 33 -25 14z"/>
 <path d="M6245 1250 c-4 -6 -3 -16 3 -22 6 -6 12 -6 17 2 4 6 3 16 -3 22 -6 6 -12 6 -17 -2z"/>
 <path d="M4505 1241 c-10 -17 61 -115 76 -105 5 3 -7 28 -27 57 -44 64 -41 61 -49 48z"/>
 <path d="M1035 1231 c-7 -12 12 -24 25 -16 11 7 4 25 -10 25 -5 0 -11 -4 -15 -9z"/>
 <path d="M1615 1230 c-4 -6 -3 -16 3 -22 6 -6 12 -6 17 2 4 6 3 16 -3 22 -6 6 -12 6 -17 -2z"/>
 <path d="M2407 1234 c-3 -4 1 -20 9 -37 9 -16 14 -40 11 -54 -5 -29 6 -38 23 -18 22 26 -20 131 -43 109z"/>
 <path d="M3129 1213 c-6 -15 -19 -38 -30 -49 -11 -12 -16 -24 -11 -28 11 -7 58 42 66 71 10 32 -12 38 -25 6z"/>
 <path d="M1885 1220 c-4 -6 -3 -16 3 -22 6 -6 12 -6 17 2 4 6 3 16 -3 22 -6 6 -12 6 -17 -2z"/>
 <path d="M5426 1222 c-3 -6 1 -15 8 -21 8 -7 17 -8 20 -3 3 6 -1 15 -8 21 -8 7 -17 8 -20 3z"/>
 <path d="M4717 1214 c-4 -4 3 -20 14 -36 12 -16 22 -36 24 -46 2 -9 4 -19 4 -21 1 -2 8 2 16 9 13 10 10 18 -16 56 -32 47 -32 47 -42 38z"/>
 <path d="M1136 1201 c-7 -10 2 -39 17 -59 6 -7 12 -25 13 -39 3 -29 28 -60 37 -46 3 4 -2 24 -12 43 -9 19 -17 39 -18 43 -3 18 -22 67 -27 67 -3 0 -7 -4 -10 -9z"/>
 <path d="M4885 1201 c-4 -8 -1 -19 8 -28 19 -20 30 -1 13 22 -10 14 -15 15 -21 6z"/>
 <path d="M3376 1192 c-3 -5 3 -17 13 -26 11 -10 22 -13 25 -8 3 5 -3 17 -13 26 -11 10 -22 13 -25 8z"/>
 <path d="M5255 1190 c-10 -17 31 -84 46 -74 8 5 -26 84 -36 84 -2 0 -7 -4 -10 -10z"/>
 <path d="M5905 1190 c-5 -8 29 -38 87 -74 14 -9 29 -13 32 -8 3 5 -22 27 -54 50 -33 22 -62 37 -65 32z"/>
 <path d="M2886 1182 c-3 -6 1 -15 8 -21 8 -7 17 -8 20 -3 3 6 -1 15 -8 21 -8 7 -17 8 -20 3z"/>
 <path d="M5070 1179 c-26 -15 -74 -32 -87 -30 -16 2 -26 -16 -13 -24 5 -3 16 -3 23 2 12 7 17 9 48 11 22 3 65 37 53 44 -5 3 -16 2 -24 -3z"/>
 <path d="M5457 1184 c-3 -4 -2 -16 4 -27 7 -11 7 -17 1 -13 -5 3 -15 -1 -21 -8 -22 -26 6 -26 29 0 21 22 22 26 9 39 -8 9 -18 13 -22 9z"/>
 <path d="M1327 1173 c-3 -5 3 -29 14 -53 14 -31 23 -40 30 -33 8 8 8 17 0 32 -7 12 -11 29 -9 38 3 18 -26 31 -35 16z"/>
 <path d="M3651 1166 c-7 -8 -8 -17 -3 -20 6 -3 15 1 21 8 7 8 8 17 3 20 -6 3 -15 -1 -21 -8z"/>
 <path d="M6231 1156 c-13 -13 -18 -26 -13 -30 5 -3 19 5 31 18 13 13 18 26 13 30 -5 3 -19 -5 -31 -18z"/>
 <path d="M1405 1161 c-7 -12 12 -24 25 -16 11 7 4 25 -10 25 -5 0 -11 -4 -15 -9z"/>
 <path d="M4027 1164 c-3 -6 4 -23 17 -39 13 -15 25 -24 29 -19 3 6 -4 23 -17 39 -13 15 -25 24 -29 19z"/>
 <path d="M2807 1154 c-12 -12 50 -97 64 -88 5 3 -5 25 -21 50 -33 47 -33 47 -43 38z"/>
 <path d="M3426 1152 c-3 -6 1 -15 8 -21 8 -7 17 -8 20 -3 3 6 -1 15 -8 21 -8 7 -17 8 -20 3z"/>
 <path d="M1885 1130 c-4 -6 -3 -16 3 -22 6 -6 12 -6 17 2 4 6 3 16 -3 22 -6 6 -12 6 -17 -2z"/>
 <path d="M2975 1131 c-7 -12 12 -24 25 -16 11 7 4 25 -10 25 -5 0 -11 -4 -15 -9z"/>
 <path d="M3025 1131 c-7 -12 12 -24 25 -16 11 7 4 25 -10 25 -5 0 -11 -4 -15 -9z"/>
 <path d="M3621 1126 c-7 -8 -8 -17 -3 -20 6 -3 15 1 21 8 7 8 8 17 3 20 -6 3 -15 -1 -21 -8z"/>
 <path d="M4296 1111 c-15 -16 -23 -31 -18 -35 5 -3 21 8 36 23 15 16 23 31 18 35 -5 3 -21 -8 -36 -23z"/>
 <path d="M1975 1121 c-7 -12 12 -24 25 -16 11 7 4 25 -10 25 -5 0 -11 -4 -15 -9z"/>
 <path d="M2326 1121 c-11 -16 10 -38 34 -37 22 1 29 21 8 21 -7 0 -18 6 -24 14 -8 11 -13 11 -18 2z"/>
 <path d="M6181 1116 c-7 -8 -8 -17 -3 -20 6 -3 15 1 21 8 7 8 8 17 3 20 -6 3 -15 -1 -21 -8z"/>
 <path d="M4606 1112 c-3 -6 1 -15 8 -21 8 -7 17 -8 20 -3 3 6 -1 15 -8 21 -8 7 -17 8 -20 3z"/>
 <path d="M5365 1101 c-7 -12 12 -24 25 -16 11 7 4 25 -10 25 -5 0 -11 -4 -15 -9z"/>
 <path d="M4096 1082 c-3 -6 1 -15 8 -21 8 -7 17 -8 20 -3 3 6 -1 15 -8 21 -8 7 -17 8 -20 3z"/>
 <path d="M2665 1060 c-8 -13 34 -72 45 -65 5 3 0 21 -11 40 -23 38 -25 40 -34 25z"/>
 <path d="M4231 1056 c-7 -8 -8 -17 -3 -20 6 -3 15 1 21 8 7 8 8 17 3 20 -6 3 -15 -1 -21 -8z"/>
 <path d="M1385 1040 c-9 -15 35 -94 47 -82 6 6 3 23 -11 51 -23 43 -26 47 -36 31z"/>
 <path d="M4165 1041 c-7 -12 12 -24 25 -16 11 7 4 25 -10 25 -5 0 -11 -4 -15 -9z"/>
 <path d="M1196 1032 c-9 -15 12 -65 24 -57 14 9 13 28 -3 50 -9 11 -16 14 -21 7z"/>
 <path d="M2855 1026 c-14 -10 -15 -15 -6 -21 8 -4 19 -1 28 8 20 19 1 30 -22 13z"/>
 <path d="M2725 981 c-7 -12 12 -24 25 -16 11 7 4 25 -10 25 -5 0 -11 -4 -15 -9z"/>
 <path d="M1225 930 c-4 -6 -3 -16 3 -22 6 -6 12 -6 17 2 4 6 3 16 -3 22 -6 6 -12 6 -17 -2z"/>
 <path d="M1466 872 c-8 -8 24 -42 40 -42 7 0 15 4 19 9 6 10 -51 42 -59 33z"/>
 <path d="M1150 845 c-16 -17 -20 -29 -14 -35 7 -7 18 0 32 19 27 37 13 49 -18 16z"/>
 <path d="M1565 841 c-7 -12 12 -24 25 -16 11 7 4 25 -10 25 -5 0 -11 -4 -15 -9z"/>
 <path d="M1665 830 c-8 -13 20 -24 41 -16 20 8 9 26 -16 26 -10 0 -22 -5 -25 -10z"/>
 <path d="M1845 831 c-7 -12 12 -24 25 -16 11 7 4 25 -10 25 -5 0 -11 -4 -15 -9z"/>
 <path d="M1885 820 c-4 -6 -3 -16 3 -22 6 -6 12 -6 17 2 4 6 3 16 -3 22 -6 6 -12 6 -17 -2z"/>
 <path d="M1125 760 c-8 -12 20 -60 35 -60 17 0 21 20 6 26 -9 3 -16 12 -16 19 0 18 -17 28 -25 15z"/>
 <path d="M1505 721 c-7 -13 17 -24 40 -19 9 1 16 8 16 13 0 14 -48 19 -56 6z"/>
 <path d="M1625 711 c-7 -12 12 -24 25 -16 11 7 4 25 -10 25 -5 0 -11 -4 -15 -9z"/>
 <path d="M1821 706 c-7 -8 -8 -17 -3 -20 6 -3 15 1 21 8 7 8 8 17 3 20 -6 3 -15 -1 -21 -8z"/>
 <path d="M1705 701 c-7 -12 12 -24 25 -16 11 7 4 25 -10 25 -5 0 -11 -4 -15 -9z"/>
 <path d="M1913 3 c1055 -2 2779 -2 3830 0 1052 1 189 2 -1918 2 -2106 0 -2967 -1 -1912 -2z"/>
 </g>
<g id="layer2" fill="#05c7ff" stroke="none">
 <path d="M2352 2317 c-102 -104 -75 -270 132 -804 57 -148 113 -298 125 -334 12 -36 41 -97 64 -135 50 -82 69 -88 152 -50 64 29 76 48 47 79 -22 23 -91 147 -116 209 -14 33 -8 28 67 -46 92 -92 134 -116 202 -116 42 0 52 5 88 40 l40 41 -6 87 c-13 212 -137 411 -310 497 -80 40 -123 44 -160 15 l-26 -21 83 -82 c116 -116 194 -253 244 -435 l21 -72 -40 22 c-75 42 -252 248 -310 360 -43 85 -122 323 -185 562 -31 116 -59 214 -63 218 -4 5 -26 -11 -49 -35z"/>
 <path d="M3835 1954 c-61 -33 -105 -89 -105 -133 0 -11 9 -45 21 -75 36 -97 145 -186 248 -202 23 -4 41 -12 41 -18 0 -6 -11 -60 -25 -121 -14 -60 -25 -119 -25 -131 0 -77 93 -207 171 -238 39 -16 42 -16 74 4 46 29 134 126 142 158 13 53 -46 192 -82 192 -26 0 -34 -31 -19 -73 19 -53 11 -77 -25 -77 -56 0 -88 65 -98 198 l-6 82 45 0 c81 0 85 46 6 65 l-43 11 -6 84 c-9 133 -61 215 -164 261 -62 27 -115 32 -150 13z m80 -94 c39 -24 79 -74 105 -132 20 -45 26 -88 12 -88 -16 0 -86 56 -124 98 -41 45 -54 79 -44 117 8 30 10 30 51 5z"/>
 <path d="M1039 1921 c-30 -9 -72 -46 -104 -89 l-33 -46 35 -80 c19 -45 61 -146 92 -226 l57 -145 -46 -43 c-42 -41 -44 -44 -27 -57 11 -8 41 -19 69 -26 36 -10 53 -20 62 -39 18 -35 62 -164 79 -232 l15 -57 -29 -6 c-60 -13 -105 -115 -67 -153 9 -9 67 -12 202 -12 121 0 241 -6 326 -17 130 -16 136 -16 163 2 33 21 70 88 65 117 -3 20 -9 21 -99 19 -53 -1 -145 3 -204 10 l-108 12 -68 144 c-38 79 -69 147 -69 151 0 5 24 5 53 1 94 -13 150 -10 184 11 39 23 60 81 45 121 -10 25 -12 26 -84 21 -57 -3 -276 20 -284 31 -4 5 -84 218 -97 258 -25 75 -48 171 -43 177 3 2 54 -5 113 -16 134 -27 285 -45 338 -40 34 3 43 8 62 43 17 29 22 53 21 85 l-3 45 -230 7 c-126 3 -262 13 -301 20 -39 8 -78 12 -85 9z"/>
 <path d="M1717 1862 c-10 -10 -17 -25 -17 -33 0 -9 37 -41 83 -72 87 -59 184 -139 204 -167 10 -13 5 -35 -22 -111 -37 -100 -70 -225 -80 -299 -4 -32 -2 -51 8 -64 14 -19 19 -19 91 -8 116 18 116 18 116 115 0 74 19 189 33 203 9 10 107 -138 158 -238 26 -53 52 -99 57 -102 5 -3 29 5 53 17 53 26 59 49 28 109 -26 52 -137 203 -174 238 -15 14 -40 42 -57 63 l-30 37 57 125 c31 68 54 129 50 135 -9 15 -81 50 -103 50 -25 0 -44 -22 -96 -113 l-43 -77 -69 56 c-76 63 -208 154 -222 154 -5 0 -16 -8 -25 -18z"/>
 <path d="M3302 1839 c-186 -92 -161 -403 52 -626 70 -75 164 -133 215 -133 17 0 39 15 71 49 26 28 58 53 72 56 66 17 95 97 78 215 -29 207 -165 375 -356 440 -71 25 -79 25 -132 -1z m145 -90 c81 -39 168 -158 199 -274 8 -27 14 -92 14 -142 0 -108 -6 -113 -81 -64 -160 103 -282 365 -227 486 13 28 22 27 95 -6z"/>
 <path d="M5134 1832 c-68 -49 -69 -52 -49 -134 26 -108 132 -422 171 -508 19 -41 44 -84 55 -96 20 -21 23 -22 61 -8 50 17 108 52 108 65 0 5 -15 32 -33 61 -40 64 -81 158 -72 166 7 8 132 -123 189 -198 47 -62 85 -75 124 -43 20 16 21 22 12 53 -6 19 -10 78 -8 131 2 92 1 98 -25 133 l-28 36 -31 -17 c-29 -17 -81 -79 -91 -106 -5 -17 -79 36 -137 100 -61 66 -113 171 -142 283 -31 123 -39 129 -104 82z"/>
 <path d="M5844 1846 c-46 -20 -103 -74 -126 -120 -77 -151 62 -469 261 -595 103 -65 173 -65 246 2 l47 42 -12 65 c-28 154 -109 250 -282 333 l-107 52 0 50 c-1 31 5 59 15 73 34 49 137 12 249 -90 60 -55 68 -59 82 -46 21 21 9 41 -74 119 -119 111 -218 150 -299 115z m117 -347 c75 -50 144 -129 163 -186 22 -64 21 -76 -6 -67 -83 26 -180 141 -224 266 -15 44 -19 44 67 -13z"/>
 <path d="M4444 1820 c-23 -12 -52 -32 -65 -46 -22 -23 -24 -34 -23 -112 1 -71 7 -103 33 -177 74 -206 207 -405 269 -405 29 0 106 32 115 47 3 5 -17 45 -45 88 -91 142 -179 353 -194 465 -6 46 -5 52 9 44 18 -10 144 -170 207 -264 23 -33 57 -96 75 -141 34 -81 84 -168 110 -189 10 -9 28 -7 74 5 101 29 101 26 11 214 -107 225 -130 327 -95 426 20 55 7 68 -48 49 -98 -34 -144 -85 -149 -163 -2 -22 -4 -41 -5 -41 -1 0 -31 38 -67 84 -75 97 -119 136 -149 136 -12 0 -40 -9 -63 -20z"/>
 </g>

</svg>